{"accessors":{"accessor_0":{"bufferView":"bufferView_0","count":6840,"byteOffset":0,"componentType":5126,"type":"VEC3","min":[1.6928094625473022,1.9827024936676025,0.6071773171424866],"max":[-0.32074683904647827,-6.177072471146711e-17,-1.406378984451294]},"accessor_1":{"bufferView":"bufferView_0","count":6840,"byteOffset":82080,"componentType":5126,"type":"VEC3","min":[43.471519470214844,43.4782600402832,43.47068405151367],"max":[-43.4570426940918,-43.4782600402832,-43.43477249145508]},"accessor_2":{"bufferView":"bufferView_0","count":6840,"byteOffset":164160,"componentType":5126,"type":"VEC2","min":[0,0],"max":[0,0]}},"asset":{"generator":"Archilogic 160930-001811-272e1646337d-11993","version":"1.0.1"},"extensionsUsed":["KHR_materials_common"],"buffers":{"buffer_0":{"byteLength":218880,"type":"arraybuffer","uri":"data:application/octet-stream;base64,"}},"bufferViews":{"bufferView_0":{"buffer":"buffer_0","byteLength":218880,"byteOffset":0,"target":34962}},"materials":{"DefaultMaterial":{"name":"DefaultMaterial","extensions":{"KHR_materials_common":{"technique":"PHONG","values":{"diffuse":[0.6,0.6,0.6,1],"specular":[0,0,0,1],"shininess":[0.01]}}}}},"meshes":{"mesh_0":{"primitives":[{"attributes":{"POSITION":"accessor_0","NORMAL":"accessor_1","TEXCOORD_0":"accessor_2"},"material":"DefaultMaterial"}]}},"nodes":{"node_0":{"children":[],"translation":[-6.080855307214579,0,0],"meshes":["mesh_0"]}},"scenes":{"defaultScene":{"nodes":["node_0"]}},"scene":"defaultScene"}